<?xml version="1.0" encoding="UTF-8"?>
<svg xmlns="http://www.w3.org/2000/svg" viewBox="300 300 200 200">
  <style>
    path { fill: #0a0a0a; }
    @media (prefers-color-scheme: dark) {
      path { fill: #ffffff; }
    }
  </style>
  <path d="M447.98,416.09v1.74c0,2.14-.09,4.17-.26,6.08-1.63,17.81-10.87,26.06-28.76,26.09h-72.72c-17.96,0-27.06-8.24-28.65-26.09-.18-1.91-.26-3.94-.26-6.08v-1.74c0-2.14.09-4.18.26-6.08,1.63-17.86,10.91-26.1,28.87-26.1,1.95,0,3.8.1,5.55.3,4.92.55,9.01,1.89,12.33,4.07.71,8.54,3.73,13.32,9.74,15.17.48,2.02.82,4.21,1.03,6.56.17,1.81.25,3.75.26,5.78-4.92-.55-9.02-1.89-12.33-4.06-.7-8.55-3.73-13.34-9.75-15.19-1.98-.6-4.29-.89-6.94-.89-11.96,0-16.85,5.87-16.85,20.32v1.97c0,14.46,4.89,20.33,16.85,20.33h72.61c11.96,0,16.85-5.87,16.85-20.33v-1.97c0-1.51-.05-2.92-.16-4.25-.71-8.54-3.73-13.32-9.74-15.17-1.98-.61-4.29-.9-6.95-.9-4.55,0-8.08.85-10.7,2.7-2.95,2.07-4.75,5.41-5.59,10.21-3.16,3.37-7.38,5.57-12.69,6.68l.22-5.22h0c.28-3.08.78-5.86,1.53-8.37,1.21-4.15,3.06-7.54,5.59-10.21,3.16-3.37,7.38-5.57,12.69-6.68,2.73-.57,5.75-.85,9.06-.85,1.95,0,3.8.1,5.55.3,4.91.55,9.01,1.89,12.33,4.07,4.91,3.2,8.12,8.21,9.74,15.17.48,2.02.82,4.21,1.03,6.56l.25,5.78v.3Z"/>
  <path d="M482.67,382.17v1.74c0,2.14-.09,4.18-.26,6.08-1.64,17.86-10.91,26.1-28.87,26.1-1.96,0-3.81-.1-5.56-.3-4.91-.55-9-1.89-12.32-4.07-.71-8.54-3.73-13.32-9.74-15.17-.48-2.02-.82-4.21-1.03-6.56-.18-1.81-.25-3.75-.26-5.78,4.91.55,9.01,1.89,12.33,4.07.71,8.54,3.73,13.32,9.74,15.17,1.98.61,4.28.9,6.94.9,11.97,0,16.86-5.87,16.86-20.32v-1.97c0-14.46-4.89-20.33-16.86-20.33h-72.6c-11.96,0-16.85,5.87-16.85,20.33v1.97c0,1.51.05,2.92.16,4.25.71,8.54,3.73,13.32,9.74,15.17,1.98.61,4.29.9,6.95.9,4.55,0,8.08-.85,10.7-2.7,2.95-2.07,4.75-5.41,5.59-10.21,3.16-3.37,7.38-5.57,12.69-6.68l-.22,5.22h0c-.28,3.08-.79,5.86-1.53,8.37-1.21,4.15-3.06,7.54-5.59,10.21-3.16,3.37-7.38,5.57-12.69,6.68-2.73.57-5.75.85-9.06.85-1.95,0-3.8-.1-5.55-.3-4.92-.55-9.02-1.89-12.33-4.06-4.92-3.2-8.13-8.22-9.75-15.19-.48-2.02-.82-4.2-1.03-6.55l-.25-5.78v-.3s-.01-1.74-.01-1.74c0-2.14.1-4.17.26-6.08,1.64-17.81,10.87-26.06,28.77-26.09h72.72c17.96,0,27.06,8.24,28.65,26.09.17,1.91.26,3.94.26,6.08Z"/>
</svg>
