<?xml version="1.0" encoding="UTF-8"?>
<svg xmlns="http://www.w3.org/2000/svg" viewBox="100 320 585 140">
  <path d="M253.47,416.09v1.74c0,2.14-.09,4.17-.26,6.08-1.63,17.81-10.87,26.06-28.76,26.09h-72.72c-17.96,0-27.06-8.24-28.65-26.09-.18-1.91-.26-3.94-.26-6.08v-1.74c0-2.14.09-4.18.26-6.08,1.63-17.86,10.91-26.1,28.87-26.1,1.95,0,3.8.1,5.55.3,4.92.55,9.01,1.89,12.33,4.07.71,8.54,3.73,13.32,9.74,15.17.48,2.02.82,4.21,1.03,6.56.17,1.81.25,3.75.26,5.78-4.92-.55-9.02-1.89-12.33-4.06-.7-8.55-3.73-13.34-9.75-15.19-1.98-.6-4.29-.89-6.94-.89-11.96,0-16.85,5.87-16.85,20.32v1.97c0,14.46,4.89,20.33,16.85,20.33h72.61c11.96,0,16.85-5.87,16.85-20.33v-1.97c0-1.51-.05-2.92-.16-4.25-.71-8.54-3.73-13.32-9.74-15.17-1.98-.61-4.29-.9-6.95-.9-4.55,0-8.08.85-10.7,2.7-2.95,2.07-4.75,5.41-5.59,10.21-3.16,3.37-7.38,5.57-12.69,6.68l.22-5.22h0c.28-3.08.78-5.86,1.53-8.37,1.21-4.15,3.06-7.54,5.59-10.21,3.16-3.37,7.38-5.57,12.69-6.68,2.73-.57,5.75-.85,9.06-.85,1.95,0,3.8.1,5.55.3,4.91.55,9.01,1.89,12.33,4.07,4.91,3.2,8.12,8.21,9.74,15.17.48,2.02.82,4.21,1.03,6.56l.25,5.78v.3Z"/>
  <path d="M288.15,382.17v1.74c0,2.14-.09,4.18-.26,6.08-1.64,17.86-10.91,26.1-28.87,26.1-1.96,0-3.81-.1-5.56-.3-4.91-.55-9-1.89-12.32-4.07-.71-8.54-3.73-13.32-9.74-15.17-.48-2.02-.82-4.21-1.03-6.56-.18-1.81-.25-3.75-.26-5.78,4.91.55,9.01,1.89,12.33,4.07.71,8.54,3.73,13.32,9.74,15.17,1.98.61,4.28.9,6.94.9,11.97,0,16.86-5.87,16.86-20.32v-1.97c0-14.46-4.89-20.33-16.86-20.33h-72.6c-11.96,0-16.85,5.87-16.85,20.33v1.97c0,1.51.05,2.92.16,4.25.71,8.54,3.73,13.32,9.74,15.17,1.98.61,4.29.9,6.95.9,4.55,0,8.08-.85,10.7-2.7,2.95-2.07,4.75-5.41,5.59-10.21,3.16-3.37,7.38-5.57,12.69-6.68l-.22,5.22h0c-.28,3.08-.79,5.86-1.53,8.37-1.21,4.15-3.06,7.54-5.59,10.21-3.16,3.37-7.38,5.57-12.69,6.68-2.73.57-5.75.85-9.06.85-1.95,0-3.8-.1-5.55-.3-4.92-.55-9.02-1.89-12.33-4.06-4.92-3.2-8.13-8.22-9.75-15.19-.48-2.02-.82-4.2-1.03-6.55l-.25-5.78v-.3s-.01-1.74-.01-1.74c0-2.14.1-4.17.26-6.08,1.64-17.81,10.87-26.06,28.77-26.09h72.72c17.96,0,27.06,8.24,28.65,26.09.17,1.91.26,3.94.26,6.08Z"/>
  <g>
    <path d="M322.83,426.09l10.65-7.83c1.41,11.63,6.74,20,17.93,20,10.54,0,14.13-4.78,14.13-19.24v-42.93h12.28v44.67c0,21.09-8.59,29.24-26.41,29.24-15.11,0-25.22-9.13-28.59-23.91h.01Z"/>
    <path d="M392.98,423.91c-.17-1.91-.26-3.94-.26-6.08l.26,6.08Z"/>
    <path d="M450.76,417.83c0,2.14-.09,4.16-.26,6.07l.26-6.07Z"/>
    <path d="M523.37,382.17v35.66c0,2.14-.09,4.17-.26,6.08-1.63,17.85-10.91,26.09-28.87,26.09s-27.06-8.24-28.65-26.09c-.18-1.91-.26-3.94-.26-6.08v-41.74h12.17v41.85c0,14.46,4.89,20.33,16.85,20.33s16.85-5.87,16.85-20.33v-35.88c0-14.46-4.89-20.33-16.85-20.33h-72.61c-11.96,0-16.85,5.87-16.85,20.33v35.88c0,14.46,4.89,20.33,16.85,20.33s16.85-5.87,16.85-20.33v-41.85h12.17v41.74l-.26,6.07h0c-1.63,17.86-10.91,26.1-28.87,26.1s-27.06-8.24-28.65-26.09l-.26-6.08v-35.66c0-2.14.09-4.17.26-6.08,1.63-17.81,10.87-26.06,28.76-26.09h72.72c17.96,0,27.06,8.24,28.65,26.09.18,1.91.26,3.94.26,6.08Z"/>
    <path d="M560.55,448.91l-26.63-72.83h14.02l14.46,42.5,5.43,20.98,5.54-20.98,14.46-42.5h13.37l-26.63,72.83h-14.02Z"/>
    <path d="M605.44,412.39c0-20.98,14.46-37.39,35.87-37.39s35.87,16.41,35.87,37.39-14.57,37.5-35.87,37.5-35.87-16.41-35.87-37.5ZM664.35,412.39c0-15-7.72-25.76-22.93-25.76s-23.04,10.76-23.04,25.76,7.83,25.76,23.04,25.76,22.93-10.65,22.93-25.76Z"/>
  </g>
</svg>
