<?xml version="1.0" encoding="UTF-8"?>
<svg xmlns="http://www.w3.org/2000/svg" viewBox="0 0 1080 1080">
  <style>
    path { fill: #000; }
    @media (prefers-color-scheme: dark) {
      path { fill: #fff; }
    }
  </style>
  <path d="M826.98,386.74l109.72,109.72c6.07,6.07,4.41,16.3-3.27,20.14l-7.32,3.66c-61.4,30.7-135.56,18.67-184.1-29.88h0c-28.46-28.46-67.07-44.46-107.32-44.46h0c-40.25,0-78.86,15.99-107.32,44.46h0c-48.54,48.54-122.7,60.58-184.1,29.88l-7.32-3.66c-7.68-3.84-9.34-14.07-3.27-20.14l109.72-109.72c2.36-2.36,5.56-3.68,8.89-3.68h366.8c3.33,0,6.53,1.32,8.89,3.68Z"/>
  <path d="M253.79,693.72l-109.72-109.72c-6.07-6.07-4.41-16.3,3.27-20.14l7.32-3.66c61.4-30.7,135.56-18.67,184.1,29.88h0c28.46,28.46,67.07,44.46,107.32,44.46h0c40.25,0,78.86-15.99,107.32-44.46h0c48.54-48.54,122.7-60.58,184.1-29.88l7.32,3.66c7.68,3.84,9.34,14.07,3.27,20.14l-109.72,109.72c-2.36,2.36-5.56,3.68-8.89,3.68h-366.8c-3.33,0-6.53-1.32-8.89-3.68Z"/>
</svg>
